<?xml version="1.0" encoding="UTF-8" ?>
<svg viewBox="-28.035199999998852 -623.7034000000008 2103.853199999999 3089.836" xmlns="http://www.w3.org/2000/svg">
<polygon points="0,0 32.0952,0 32.0952,37.7732 103.17859999999999,37.7732 103.17859999999999,84.1714 134.666,84.1714 134.666,163.52120000000002 161.93,163.52120000000002 161.93,184.49380000000002 198.9514,184.49380000000002 198.9514,250.47500000000002 255.6876,250.47500000000002 255.6876,271.16400000000004 299.7408,271.16400000000004 299.7408,163.52120000000005 328.26279999999997,163.52120000000005 328.26279999999997,199.97380000000004 382.5906,199.97380000000004 382.5906,258.72420000000005 406.6058,258.72420000000005 406.6058,321.79100000000005 416.39959999999996,321.79100000000005 416.39959999999996,404.37200000000007 449.01259999999996,404.37200000000007 449.01259999999996,417.22260000000006 523.4078,417.22260000000006 523.4078,428.94820000000004 561.4531999999999,428.94820000000004 561.4531999999999,486.21900000000005 511.46239999999995,486.21900000000005 511.46239999999995,498.6566 529.8667999999999,498.6566 529.8667999999999,561.6516 511.4623999999999,561.6516 511.4623999999999,625.5146 451.0851999999999,625.5146 451.0851999999999,593.5423999999999 508.55899999999986,593.5423999999999 508.55899999999986,547.026 451.0851999999999,547.026 451.0851999999999,486.21899999999994 416.39959999999985,486.21899999999994 416.39959999999985,536.829 406.07759999999985,536.829 406.07759999999985,584.0921999999999 414.6419999999998,584.0921999999999 414.6419999999998,640.5783999999999 419.50379999999984,640.5783999999999 419.50379999999984,693.7667999999999 517.2731999999999,693.7667999999999 517.2731999999999,640.5783999999999 558.0587999999999,640.5783999999999 558.0587999999999,697.7755999999998 585.6761999999999,697.7755999999998 585.6761999999999,716.9555999999998 577.7489999999999,716.9555999999998 577.7489999999999,742.2755999999998 470.1543999999999,742.2755999999998 470.1543999999999,716.9555999999998 406.0775999999999,716.9555999999998 406.0775999999999,727.3053999999997 400.92079999999993,727.3053999999997 400.92079999999993,794.7869999999997 376.7013999999999,794.7869999999997 376.7013999999999,716.7611999999997 293.14559999999994,716.7611999999997 293.14559999999994,713.5075999999997 271.61719999999997,713.5075999999997 271.61719999999997,794.7869999999997 250.75679999999997,794.7869999999997 250.75679999999997,875.1369999999997 231.50159999999997,875.1369999999997 231.50159999999997,941.3053999999997 165.06119999999999,941.3053999999997 165.06119999999999,996.5979999999997 81.12399999999998,996.5979999999997 81.12399999999998,1079.9989999999998 -0.000000000000014210854715202004,1079.9989999999998 -0.000000000000014210854715202004,1143.9683999999997 66.33459999999998,1143.9683999999997 66.33459999999998,1230.1457999999998 91.17359999999998,1230.1457999999998 91.17359999999998,1283.3665999999998 99.99819999999998,1283.3665999999998 99.99819999999998,1289.254 113.57139999999998,1289.254 113.57139999999998,1352.3257999999998 215.53319999999997,1352.3257999999998 215.53319999999997,1375.1978 283.88879999999995,1375.1978 283.88879999999995,1275.5764 289.82899999999995,1275.5764 289.82899999999995,1301.9484 313.73679999999996,1301.9484 313.73679999999996,1367.907 404.9188,1367.907 404.9188,1377.1108 430.47339999999997,1377.1108 430.47339999999997,1383.2687999999998 438.1724,1383.2687999999998 438.1724,1406.4339999999997 442.4756,1406.4339999999997 442.4756,1455.8619999999996 482.1706,1455.8619999999996 482.1706,1479.2325999999996 543.7332,1479.2325999999996 543.7332,1480.4741999999997 571.6080000000001,1480.4741999999997 571.6080000000001,1504.5827999999997 473.4444000000001,1504.5827999999997 473.4444000000001,1526.5511999999997 520.2862000000001,1526.5511999999997 520.2862000000001,1526.9837999999997 548.1244000000002,1526.9837999999997 548.1244000000002,1530.9941999999996 620.5976000000002,1530.9941999999996 620.5976000000002,1462.3617999999997 658.5480000000002,1462.3617999999997 658.5480000000002,1530.9941999999996 700.0462000000002,1530.9941999999996 700.0462000000002,1613.2905999999996 642.7796000000002,1613.2905999999996 642.7796000000002,1678.8291999999997 636.2130000000002,1678.8291999999997 636.2130000000002,1680.3217999999997 594.2138000000002,1680.3217999999997 594.2138000000002,1729.1417999999996 560.2820000000003,1729.1417999999996 560.2820000000003,1766.3459999999995 489.1252000000003,1766.3459999999995 489.1252000000003,1831.3173999999995 473.4444000000003,1831.3173999999995 473.4444000000003,1863.0737999999994 571.6080000000003,1863.0737999999994 571.6080000000003,1867.6579999999994 536.8080000000003,1867.6579999999994 536.8080000000003,1909.9871999999993 477.87980000000033,1909.9871999999993 477.87980000000033,1940.8795999999993 451.3164000000003,1940.8795999999993 451.3164000000003,1909.9871999999993 404.9188000000003,1909.9871999999993 404.9188000000003,1953.3163999999992 460.80300000000034,1953.3163999999992 460.80300000000034,2008.1961999999992 469.9326000000003,2008.1961999999992 469.9326000000003,2034.0885999999991 552.6580000000004,2034.0885999999991 552.6580000000004,2105.665399999999 560.0906000000003,2105.665399999999 560.0906000000003,2008.196199999999 583.5824000000003,2008.196199999999 583.5824000000003,2067.685999999999 608.6048000000003,2067.685999999999 608.6048000000003,2107.127799999999 636.3668000000002,2107.127799999999 636.3668000000002,2126.467799999999 592.8568000000002,2126.467799999999 592.8568000000002,2206.954799999999 558.5554000000002,2206.954799999999 558.5554000000002,2246.733999999999 636.3668000000002,2246.733999999999 636.3668000000002,2264.844199999999 661.7612000000003,2264.844199999999 661.7612000000003,2360.919399999999 636.3668000000002,2360.919399999999 636.3668000000002,2374.244799999999 671.8610000000002,2374.244799999999 671.8610000000002,2442.909199999999 750.5094000000003,2442.909199999999 750.5094000000003,2456.132599999999 778.4244000000002,2456.132599999999 778.4244000000002,2447.894399999999 850.2810000000002,2447.894399999999 850.2810000000002,2378.054199999999 858.5828000000001,2378.054199999999 858.5828000000001,2317.463399999999 931.9438000000001,2317.463399999999 931.9438000000001,2274.640799999999 858.7012000000001,2274.640799999999 858.7012000000001,2248.414799999999 898.7832000000001,2248.414799999999 898.7832000000001,2170.175199999999 935.6354000000001,2170.175199999999 935.6354000000001,2119.7599999999993 983.2012000000001,2119.7599999999993 983.2012000000001,2153.7747999999992 1048.2472,2153.7747999999992 1048.2472,2119.7599999999993 1055.8144,2119.7599999999993 1055.8144,2102.9717999999993 1018.8962,2102.9717999999993 1018.8962,2033.0037999999993 940.5198,2033.0037999999993 940.5198,2102.9717999999993 935.6354,2102.9717999999993 935.6354,2040.3145999999992 858.7012,2040.3145999999992 858.7012,2032.9627999999993 931.9438,2032.9627999999993 931.9438,1999.6529999999993 980.2942,1999.6529999999993 980.2942,1953.3163999999992 1044.9462,1953.3163999999992 1044.9462,1896.3833999999993 1016.2922000000001,1896.3833999999993 1016.2922000000001,1855.5239999999992 978.9340000000001,1855.5239999999992 978.9340000000001,1896.3833999999993 919.9602000000001,1896.3833999999993 919.9602000000001,1887.8057999999992 868.1220000000001,1887.8057999999992 868.1220000000001,1870.768999999999 811.4822,1870.768999999999 811.4822,1903.788999999999 746.6852,1903.788999999999 746.6852,1870.768999999999 745.0052000000001,1870.768999999999 745.0052000000001,1804.692399999999 719.5284,1804.692399999999 719.5284,1784.565999999999 790.0120000000001,1784.565999999999 790.0120000000001,1782.995999999999 822.3596,1782.995999999999 822.3596,1784.565999999999 868.122,1784.565999999999 868.122,1704.737799999999 788.8381999999999,1704.737799999999 788.8381999999999,1692.755599999999 840.5006,1692.755599999999 840.5006,1644.126399999999 842.5602,1644.126399999999 842.5602,1629.004799999999 891.7322,1629.004799999999 891.7322,1560.973799999999 942.147,1560.973799999999 942.147,1512.512599999999 977.0916000000001,1512.512599999999 977.0916000000001,1430.545399999999 1044.9462,1430.545399999999 1044.9462,1423.127199999999 1016.7134000000001,1423.127199999999 1016.7134000000001,1408.700199999999 1068.7122000000002,1408.700199999999 1068.7122000000002,1319.569999999999 1016.7134000000002,1319.569999999999 1016.7134000000002,1293.450199999999 1044.9462000000003,1293.450199999999 1044.9462000000003,1275.576399999999 1089.6808000000003,1275.576399999999 1089.6808000000003,1375.197799999999 1154.9486000000004,1375.197799999999 1154.9486000000004,1363.450599999999 1218.4376000000004,1363.450599999999 1218.4376000000004,1325.345799999999 1227.5522000000005,1325.345799999999 1227.5522000000005,1317.694599999999 1282.6050000000005,1317.694599999999 1282.6050000000005,1296.657999999999 1324.8898000000004,1296.657999999999 1324.8898000000004,1237.001599999999 1352.7168000000004,1237.001599999999 1352.7168000000004,1221.811199999999 1298.2574000000004,1221.811199999999 1298.2574000000004,1200.0089999999989 1286.4046000000005,1200.0089999999989 1286.4046000000005,1221.811199999999 1227.5522000000005,1221.811199999999 1227.5522000000005,1194.179599999999 1218.4376000000004,1194.179599999999 1218.4376000000004,1184.3023999999991 1295.3834000000004,1184.3023999999991 1295.3834000000004,1183.0133999999991 1375.6746000000003,1183.0133999999991 1375.6746000000003,1094.1509999999992 1426.0880000000002,1094.1509999999992 1426.0880000000002,1057.6243999999992 1490.1094000000003,1057.6243999999992 1490.1094000000003,965.4539999999993 1538.3020000000004,965.4539999999993 1538.3020000000004,956.5809999999992 1593.8724000000004,956.5809999999992 1593.8724000000004,879.7445999999992 1538.3020000000004,879.7445999999992 1538.3020000000004,845.0117999999992 1607.3210000000004,845.0117999999992 1607.3210000000004,824.0879999999992 1645.4074000000003,824.0879999999992 1645.4074000000003,818.6523999999991 1703.2820000000004,818.6523999999991 1703.2820000000004,824.0879999999992 1739.3070000000005,824.0879999999992 1739.3070000000005,752.0109999999992 1707.0130000000004,752.0109999999992 1707.0130000000004,748.5863999999991 1674.6840000000004,748.5863999999991 1674.6840000000004,726.3067999999992 1621.4300000000005,726.3067999999992 1621.4300000000005,657.4219999999991 1607.4528000000005,657.4219999999991 1607.4528000000005,649.5137999999992 1541.8958000000005,649.5137999999992 1541.8958000000005,625.8029999999992 1536.1096000000005,625.8029999999992 1536.1096000000005,591.2213999999992 1553.8442000000005,591.2213999999992 1553.8442000000005,549.7781999999992 1536.1096000000005,549.7781999999992 1536.1096000000005,505.76739999999916 1563.2228000000005,505.76739999999916 1563.2228000000005,418.29439999999914 1633.9516000000006,418.29439999999914 1633.9516000000006,369.06739999999917 1739.3070000000005,369.06739999999917 1739.3070000000005,354.89919999999915 1811.4936000000005,354.89919999999915 1811.4936000000005,346.33219999999915 1827.0282000000004,346.33219999999915 1827.0282000000004,317.5113999999991 1877.9782000000005,317.5113999999991 1877.9782000000005,372.9273999999991 1825.0620000000004,372.9273999999991 1825.0620000000004,420.0125999999991 1821.1182000000003,420.0125999999991 1821.1182000000003,372.9273999999991 1767.3188000000002,372.9273999999991 1767.3188000000002,420.3379999999991 1800.3388000000002,420.3379999999991 1800.3388000000002,467.1203999999991 1827.7386000000001,467.1203999999991 1827.7386000000001,420.3379999999991 1877.9782000000002,420.3379999999991 1877.9782000000002,444.58699999999914 1943.8290000000002,444.58699999999914 1943.8290000000002,395.61299999999915 1881.9782000000002,395.61299999999915 1881.9782000000002,335.76359999999914 1943.8290000000002,335.76359999999914 1943.8290000000002,317.5113999999991 1967.5564000000002,317.5113999999991 1967.5564000000002,296.4011999999991 1943.9564000000003,296.4011999999991 1943.9564000000003,235.3563999999991 1842.4590000000003,235.3563999999991 1842.4590000000003,205.7995999999991 1827.0282000000002,205.7995999999991 1827.0282000000002,202.38059999999908 1898.1252000000002,202.38059999999908 1898.1252000000002,201.34699999999907 1911.0580000000002,201.34699999999907 1911.0580000000002,132.81219999999905 1955.4520000000002,132.81219999999905 1955.4520000000002,82.35859999999906 1994.4018000000003,82.35859999999906 1994.4018000000003,97.16999999999906 1957.2794000000004,97.16999999999906 1957.2794000000004,198.84999999999906 1994.4018000000003,198.84999999999906 1994.4018000000003,201.34699999999907 2023.4706000000003,201.34699999999907 2023.4706000000003,148.05099999999908 2065.818,148.05099999999908 2065.818,119.68859999999907 2050.0778,119.68859999999907 2050.0778,50.468799999999064 2013.488,50.468799999999064 2013.488,21.328199999999065 2005.8092000000001,21.328199999999065 2005.8092000000001,18.824799999999065 1985.3836000000001,18.824799999999065 1985.3836000000001,60.90899999999907 1892.6098000000002,60.90899999999907 1892.6098000000002,18.824799999999065 1872.0576,18.824799999999065 1872.0576,21.328199999999065 1867.9854,21.328199999999065 1867.9854,50.468799999999064 1820.6402,50.468799999999064 1820.6402,-26.50260000000094 1878.5592000000001,-26.50260000000094 1878.5592000000001,-126.27620000000094 1879.9952,-126.27620000000094 1879.9952,-182.59640000000093 1904.4778000000001,-182.59640000000093 1904.4778000000001,-104.98640000000093 1994.5426000000002,-104.98640000000093 1994.5426000000002,-182.59640000000093 1997.8194000000003,-182.59640000000093 1997.8194000000003,-126.27620000000093 2065.818,-126.27620000000093 2065.818,-149.26940000000093 2023.4706,-149.26940000000093 2023.4706,-194.46620000000092 1954.3018000000002,-194.46620000000092 1954.3018000000002,-229.19720000000092 1898.1252000000002,-229.19720000000092 1898.1252000000002,-298.62420000000094 1920.3580000000002,-298.62420000000094 1920.3580000000002,-335.8770000000009 1964.4046,-335.8770000000009 1964.4046,-365.9826000000009 1901.6580000000001,-365.9826000000009 1901.6580000000001,-421.9720000000009 1964.4046,-421.9720000000009 1964.4046,-460.7252000000009 1898.1252000000002,-460.7252000000009 1898.1252000000002,-522.9274000000008 1876.7536000000002,-522.9274000000008 1876.7536000000002,-507.5346000000008 1839.4190000000003,-507.5346000000008 1839.4190000000003,-449.6190000000008 1771.9006000000004,-449.6190000000008 1771.9006000000004,-419.2536000000008 1743.4694000000004,-419.2536000000008 1743.4694000000004,-403.6150000000008 1652.9216000000004,-403.6150000000008 1652.9216000000004,-430.0828000000008 1634.3994000000002,-430.0828000000008 1634.3994000000002,-469.2644000000008 1718.6492000000003,-469.2644000000008 1718.6492000000003,-546.9526000000008 1728.4434000000003,-546.9526000000008 1728.4434000000003,-563.8682000000008 1634.3994000000002,-563.8682000000008 1634.3994000000002,-613.7034000000008 1623.8070000000002,-613.7034000000008 1623.8070000000002,-583.0202000000008 1532.3520000000003,-583.0202000000008 1532.3520000000003,-556.5254000000008 1500.0384000000004,-556.5254000000008 1500.0384000000004,-513.6626000000008 1436.7998000000005,-513.6626000000008 1436.7998000000005,-420.9990000000008 1500.0384000000004,-420.9990000000008 1500.0384000000004,-403.6150000000008 1488.6108000000004,-403.6150000000008 1488.6108000000004,-305.6256000000008 1513.0278000000003,-305.6256000000008 1513.0278000000003,-358.7658000000008 1560.2666000000004,-358.7658000000008 1560.2666000000004,-361.4062000000008 1580.2076000000004,-361.4062000000008 1580.2076000000004,-428.2342000000008 1535.1228000000003,-428.2342000000008 1535.1228000000003,-429.8596000000008 1479.2616000000003,-429.8596000000008 1479.2616000000003,-462.9750000000008 1580.2076000000002,-462.9750000000008 1580.2076000000002,-513.7870000000008 1560.2666000000002,-513.7870000000008 1560.2666000000002,-517.4238000000008 1630.7338000000002,-517.4238000000008 1630.7338000000002,-463.11780000000084 1622.7384000000002,-463.11780000000084 1622.7384000000002,-441.92980000000085 1617.6262000000002,-441.92980000000085 1617.6262000000002,-401.02160000000083 1622.7384000000002,-401.02160000000083 1622.7384000000002,-349.33700000000084 1630.7338000000002,-349.33700000000084 1630.7338000000002,-305.6256000000009 1668.0100000000002,-305.6256000000009 1668.0100000000002,-344.09120000000087 1702.7332000000001,-344.09120000000087 1702.7332000000001,-305.6256000000009 1743.4694000000002,-305.6256000000009 1743.4694000000002,-267.21940000000086 1736.5980000000002,-267.21940000000086 1736.5980000000002,-255.56420000000085 1692.6088000000002,-255.56420000000085 1692.6088000000002,-211.42180000000084 1725.5672000000002,-211.42180000000084 1725.5672000000002,-192.45860000000084 1800.7730000000001,-192.45860000000084 1800.7730000000001,-148.93260000000083 1692.6088000000002,-148.93260000000083 1692.6088000000002,-144.43300000000085 1663.8250000000003,-144.43300000000085 1663.8250000000003,-148.76900000000086 1667.0088000000003,-148.76900000000086 1667.0088000000003,-210.32140000000086 1663.8250000000003,-210.32140000000086 1663.8250000000003,-267.21940000000086 1613.9552000000003,-267.21940000000086 1613.9552000000003,-244.90040000000087 1579.1810000000003,-244.90040000000087 1579.1810000000003,-230.06660000000088 1531.1190000000004,-230.06660000000088 1531.1190000000004,-195.74000000000086 1608.2922000000003,-195.74000000000086 1608.2922000000003,-109.83660000000086 1531.1190000000004,-109.83660000000086 1531.1190000000004,-100.63800000000086 1579.1810000000003,-100.63800000000086 1579.1810000000003,-54.688000000000855 1479.3794000000003,-54.688000000000855 1479.3794000000003,-20.894800000000856 1447.6454000000003,-20.894800000000856 1447.6454000000003,-89.81260000000086 1373.9312000000004,-89.81260000000086 1373.9312000000004,-20.894800000000856 1360.1508000000003,-20.894800000000856 1360.1508000000003,-13.378400000000855 1276.8980000000004,-13.378400000000855 1276.8980000000004,1.7203999999991453 1275.4532000000004,1.7203999999991453 1275.4532000000004,4.4847999999991455 1226.1314000000004,4.4847999999991455 1226.1314000000004,77.50679999999915 1160.3648000000005,77.50679999999915 1160.3648000000005,124.27139999999915 1152.3942000000004,124.27139999999915 1152.3942000000004,73.86619999999914 1195.5272000000004,73.86619999999914 1195.5272000000004,-11.059400000000863 1152.3942000000004,-11.059400000000863 1152.3942000000004,-13.378400000000862 1151.5942000000005,-13.378400000000862 1151.5942000000005,21.201599999999136 1075.9916000000005,21.201599999999136 1075.9916000000005,70.40259999999914 1049.8706000000004,70.40259999999914 1049.8706000000004,73.81559999999914 1085.6986000000004,73.81559999999914 1085.6986000000004,128.10019999999912 1143.8686000000005,128.10019999999912 1143.8686000000005,182.3291999999991 1049.8706000000004,182.3291999999991 1049.8706000000004,230.6965999999991 1075.9916000000005,230.6965999999991 1075.9916000000005,281.56799999999913 1022.6600000000005,281.56799999999913 1022.6600000000005,304.10919999999913 1075.9916000000005,304.10919999999913 1075.9916000000005,357.2955999999991 1098.3396000000005,357.2955999999991 1098.3396000000005,398.8055999999991 1196.4346000000005,398.8055999999991 1196.4346000000005,425.26659999999913 1229.5938000000006,425.26659999999913 1229.5938000000006,452.09379999999913 1293.5058000000006,452.09379999999913 1293.5058000000006,500.2643999999991 1322.1486000000007,500.2643999999991 1322.1486000000007,550.3779999999991 1346.7972000000007,550.3779999999991 1346.7972000000007,553.6579999999991 1360.1508000000006,553.6579999999991 1360.1508000000006,628.5031999999991 1359.4856000000007,628.5031999999991 1359.4856000000007,697.9275999999991 1322.2960000000007,697.9275999999991 1322.2960000000007,661.534199999999 1271.8218000000006,661.534199999999 1271.8218000000006,576.7463999999991 1322.2960000000007,576.7463999999991 1322.2960000000007,571.5337999999991 1267.2470000000008,571.5337999999991 1267.2470000000008,613.0167999999991 1234.5962000000009,613.0167999999991 1234.5962000000009,646.1537999999991 1267.2470000000008,646.1537999999991 1267.2470000000008,697.9275999999992 1232.3830000000007,697.9275999999992 1232.3830000000007,628.5031999999992 1141.5920000000008,628.5031999999992 1141.5920000000008,652.6761999999992 1094.7484000000009,652.6761999999992 1094.7484000000009,711.3259999999992 1101.1914000000008,711.3259999999992 1101.1914000000008,715.7989999999992 1203.1796000000008,715.7989999999992 1203.1796000000008,741.0209999999992 1211.5610000000008,741.0209999999992 1211.5610000000008,807.0817999999991 1238.7492000000009,807.0817999999991 1238.7492000000009,846.9077999999992 1211.5610000000008,846.9077999999992 1211.5610000000008,860.1015999999992 1159.0128000000009,860.1015999999992 1159.0128000000009,940.7625999999991 1124.021600000001,940.7625999999991 1124.021600000001,1023.3051999999991 1094.7484000000009,1023.3051999999991 1094.7484000000009,1046.0239999999992 1068.4848000000009,1046.0239999999992 1068.4848000000009,1000.2775999999992 1028.176600000001,1000.2775999999992 1028.176600000001,935.1631999999992 968.316800000001,935.1631999999992 968.316800000001,912.3819999999992 931.282200000001,912.3819999999992 931.282200000001,815.1755999999991 894.771200000001,815.1755999999991 894.771200000001,711.7519999999992 842.7756000000011,711.7519999999992 842.7756000000011,651.7965999999992 814.0066000000011,651.7965999999992 814.0066000000011,585.4713999999992 782.0002000000011,585.4713999999992 782.0002000000011,554.7719999999993 715.5186000000011,554.7719999999993 715.5186000000011,493.1665999999992 782.0002000000011,493.1665999999992 782.0002000000011,433.94119999999924 731.7786000000011,433.94119999999924 731.7786000000011,402.48079999999925 669.6840000000011,402.48079999999925 669.6840000000011,377.05139999999926 624.7986000000011,377.05139999999926 624.7986000000011,297.4507999999993 574.975000000001,297.4507999999993 574.975000000001,282.06179999999927 631.043400000001,282.06179999999927 631.043400000001,226.70659999999927 654.5664000000011,226.70659999999927 654.5664000000011,151.6121999999993 724.0042000000011,151.6121999999993 724.0042000000011,126.80719999999928 691.1686000000011,126.80719999999928 691.1686000000011,47.516599999999286 679.2908000000011,47.516599999999286 679.2908000000011,33.66559999999929 575.2630000000012,33.66559999999929 575.2630000000012,28.461799999999286 574.9750000000012,28.461799999999286 574.9750000000012,0.43319999999928527 512.3570000000011,0.43319999999928527 512.3570000000011,-31.238400000000716 508.0590000000011,-31.238400000000716 508.0590000000011,-58.617400000000714 512.3570000000011,-58.617400000000714 512.3570000000011,-115.7404000000007 449.5904000000011,-115.7404000000007 449.5904000000011,-102.2094000000007 487.66120000000114,-102.2094000000007 487.66120000000114,-10.1602000000007 449.5904000000011,-10.1602000000007 449.5904000000011,65.3081999999993 394.76860000000113,65.3081999999993 394.76860000000113,-19.866800000000694 360.58420000000115,-19.866800000000694 360.58420000000115,-61.1918000000007 394.76860000000113,-61.1918000000007 394.76860000000113,-115.7404000000007 323.76560000000114,-115.7404000000007 323.76560000000114,-158.4418000000007 251.46420000000114,-158.4418000000007 251.46420000000114,-244.90040000000073 220.92040000000114,-244.90040000000073 220.92040000000114,-162.82740000000075 199.76200000000114,-162.82740000000075 199.76200000000114,-151.54860000000076 196.29500000000112,-151.54860000000076 196.29500000000112,-119.21540000000076 146.47240000000113,-119.21540000000076 146.47240000000113,-101.37900000000076 230.40440000000115,-101.37900000000076 230.40440000000115,-51.212200000000756 146.47240000000113,-51.212200000000756 146.47240000000113,-4.883000000000756 196.29500000000112,-4.883000000000756 196.29500000000112,16.712399999999246 199.76200000000114,16.712399999999246 199.76200000000114,37.03499999999924 111.94060000000114,37.03499999999924 111.94060000000114,-17.202400000000758 93.50080000000114,-17.202400000000758 93.50080000000114,-121.97440000000077 125.90300000000113,-121.97440000000077 125.90300000000113,-151.74600000000078 93.50080000000114,-151.74600000000078 93.50080000000114,-206.38800000000077 133.40560000000113,-206.38800000000077 133.40560000000113,-170.46360000000078 207.71340000000112,-170.46360000000078 207.71340000000112,-206.38800000000077 211.58100000000113,-206.38800000000077 211.58100000000113,-218.75980000000078 153.40400000000113,-218.75980000000078 153.40400000000113,-324.35120000000074 133.45500000000112,-324.35120000000074 133.45500000000112,-218.75980000000075 93.50080000000112,-218.75980000000075 93.50080000000112,-282.59000000000077 111.94060000000113,-282.59000000000077 111.94060000000113,-342.74840000000074 207.45280000000113,-342.74840000000074 207.45280000000113,-394.93320000000074 213.18820000000113,-394.93320000000074 213.18820000000113,-423.29960000000074 157.93520000000115,-423.29960000000074 157.93520000000115,-455.27420000000075 111.94060000000115,-455.27420000000075 111.94060000000115,-522.9274000000007 79.66660000000115,-522.9274000000007 79.66660000000115,-486.8464000000007 75.28900000000115,-486.8464000000007 75.28900000000115,-432.4816000000007 58.03640000000115,-432.4816000000007 58.03640000000115,-366.6802000000007 72.85100000000115,-366.6802000000007 72.85100000000115,-293.8964000000007 58.03640000000115,-293.8964000000007 58.03640000000115,-257.6280000000007 75.28900000000115,-257.6280000000007 75.28900000000115,-234.09920000000074 79.66660000000115,-234.09920000000074 79.66660000000115,-201.83640000000074 -18.035199999998852,-201.83640000000074 -18.035199999998852,-147.41580000000073 79.66660000000115,-147.41580000000073 79.66660000000115,-83.29240000000073 0.0000000000011510792319313623,-83.29240000000073" fill="#C0D8FF" stroke="black" stroke-width="1"/>
</svg>
